<?xml version='1.0'?>
<!-- patch='inlet' time='1000' index='1000' -->
<VTKFile type='PolyData' version='0.1' byte_order='LittleEndian' header_type='UInt64'>
  <PolyData>
    <FieldData>
      <DataArray type='Float32' Name='TimeValue' NumberOfTuples='1' format='ascii'>
1000
      </DataArray>
    </FieldData>
    <Piece NumberOfPoints='50' NumberOfPolys='24'>
      <Points>
        <DataArray type='Float32' Name='Points' NumberOfComponents='3' format='ascii'>
0 0 0 0 0 0.012
0 0.00333333 0.012 0 0.00333333 0
0 0.00666667 0.012 0 0.00666667 0
0 0.01 0.012 0 0.01 0
0 0.0133333 0.012 0 0.0133333 0
0 0.0166667 0.012 0 0.0166667 0
0 0.02 0.012 0 0.02 0
0 0.0233333 0.012 0 0.0233333 0
0 0.0266667 0.012 0 0.0266667 0
0 0.03 0.012 0 0.03 0
0 0.0333333 0.012 0 0.0333333 0
0 0.0366667 0.012 0 0.0366667 0
0 0.04 0.012 0 0.04 0
0 0.0433333 0.012 0 0.0433333 0
0 0.0466667 0.012 0 0.0466667 0
0 0.05 0.012 0 0.05 0
0 0.0533333 0.012 0 0.0533333 0
0 0.0566667 0.012 0 0.0566667 0
0 0.06 0.012 0 0.06 0
0 0.0633333 0.012 0 0.0633333 0
0 0.0666667 0.012 0 0.0666667 0
0 0.07 0.012 0 0.07 0
0 0.0733333 0.012 0 0.0733333 0
0 0.0766667 0.012 0 0.0766667 0
0 0.08 0.012 0 0.08 0
        </DataArray>
      </Points>
      <Polys>
        <DataArray type='Int32' Name='connectivity' format='ascii'>
0 1 2 3 3 2
4 5 5 4 6 7
7 6 8 9 9 8
10 11 11 10 12 13
13 12 14 15 15 14
16 17 17 16 18 19
19 18 20 21 21 20
22 23 23 22 24 25
25 24 26 27 27 26
28 29 29 28 30 31
31 30 32 33 33 32
34 35 35 34 36 37
37 36 38 39 39 38
40 41 41 40 42 43
43 42 44 45 45 44
46 47 47 46 48 49
        </DataArray>
        <DataArray type='Int32' Name='offsets' format='ascii'>
4 8 12 16 20 24
28 32 36 40 44 48
52 56 60 64 68 72
76 80 84 88 92 96
        </DataArray>
      </Polys>
      <CellData>
        <DataArray type='Float32' Name='p' format='ascii'>
0.0334842 0.0335088 0.0335248 0.0335329 0.0335376 0.0335409
0.0335433 0.033545 0.0335462 0.0335471 0.0335476 0.0335479
0.0335479 0.0335476 0.0335471 0.0335462 0.033545 0.0335433
0.0335409 0.0335376 0.0335329 0.0335248 0.0335088 0.0334842
        </DataArray>
        <DataArray type='Float32' Name='U' NumberOfComponents='3' format='ascii'>
0.00183435 0 0 0.00526886 0 0
0.00839115 0 0 0.0112012 0 0
0.013699 0 0 0.0158846 0 0
0.017758 0 0 0.0193192 0 0
0.0205681 0 0 0.0215048 0 0
0.0221292 0 0 0.0224415 0 0
0.0224415 0 0 0.0221292 0 0
0.0215048 0 0 0.0205681 0 0
0.0193192 0 0 0.017758 0 0
0.0158846 0 0 0.013699 0 0
0.0112012 0 0 0.00839115 0 0
0.00526886 0 0 0.00183435 0 0
        </DataArray>
      </CellData>
    </Piece>
  </PolyData>
</VTKFile>
