<?xml version='1.0'?>
<!-- patch='inlet' time='600' index='600' -->
<VTKFile type='PolyData' version='0.1' byte_order='LittleEndian' header_type='UInt64'>
  <PolyData>
    <FieldData>
      <DataArray type='Float32' Name='TimeValue' NumberOfTuples='1' format='ascii'>
600
      </DataArray>
    </FieldData>
    <Piece NumberOfPoints='34' NumberOfPolys='16'>
      <Points>
        <DataArray type='Float32' Name='Points' NumberOfComponents='3' format='ascii'>
0 0 0 0 0 0.012
0 0.005 0.012 0 0.005 0
0 0.01 0.012 0 0.01 0
0 0.015 0.012 0 0.015 0
0 0.02 0.012 0 0.02 0
0 0.025 0.012 0 0.025 0
0 0.03 0.012 0 0.03 0
0 0.035 0.012 0 0.035 0
0 0.04 0.012 0 0.04 0
0 0.045 0.012 0 0.045 0
0 0.05 0.012 0 0.05 0
0 0.055 0.012 0 0.055 0
0 0.06 0.012 0 0.06 0
0 0.065 0.012 0 0.065 0
0 0.07 0.012 0 0.07 0
0 0.075 0.012 0 0.075 0
0 0.08 0.012 0 0.08 0
        </DataArray>
      </Points>
      <Polys>
        <DataArray type='Int32' Name='connectivity' format='ascii'>
0 1 2 3 3 2
4 5 5 4 6 7
7 6 8 9 9 8
10 11 11 10 12 13
13 12 14 15 15 14
16 17 17 16 18 19
19 18 20 21 21 20
22 23 23 22 24 25
25 24 26 27 27 26
28 29 29 28 30 31
31 30 32 33
        </DataArray>
        <DataArray type='Int32' Name='offsets' format='ascii'>
4 8 12 16 20 24
28 32 36 40 44 48
52 56 60 64
        </DataArray>
      </Polys>
      <CellData>
        <DataArray type='Float32' Name='p' format='ascii'>
0.0320388 0.0320545 0.0320658 0.0320721 0.0320758 0.0320782
0.0320796 0.0320803 0.0320803 0.0320796 0.0320782 0.0320758
0.0320721 0.0320658 0.0320545 0.0320388
        </DataArray>
        <DataArray type='Float32' Name='U' NumberOfComponents='3' format='ascii'>
0.00217544 0 0 0.00610526 0 0
0.00947368 0 0 0.0122807 0 0
0.0145263 0 0 0.0162105 0 0
0.0173333 0 0 0.0178947 0 0
0.0178947 0 0 0.0173333 0 0
0.0162105 0 0 0.0145263 0 0
0.0122807 0 0 0.00947368 0 0
0.00610526 0 0 0.00217544 0 0
        </DataArray>
      </CellData>
    </Piece>
  </PolyData>
</VTKFile>
