<?xml version='1.0'?>
<!-- patch='inlet' time='1000' index='1000' -->
<VTKFile type='PolyData' version='0.1' byte_order='LittleEndian' header_type='UInt64'>
  <PolyData>
    <FieldData>
      <DataArray type='Float32' Name='TimeValue' NumberOfTuples='1' format='ascii'>
1000
      </DataArray>
    </FieldData>
    <Piece NumberOfPoints='42' NumberOfPolys='20'>
      <Points>
        <DataArray type='Float32' Name='Points' NumberOfComponents='3' format='ascii'>
0 0 0 0 0 0.01
0 0.005 0.01 0 0.005 0
0 0.01 0.01 0 0.01 0
0 0.015 0.01 0 0.015 0
0 0.02 0.01 0 0.02 0
0 0.025 0.01 0 0.025 0
0 0.03 0.01 0 0.03 0
0 0.035 0.01 0 0.035 0
0 0.04 0.01 0 0.04 0
0 0.045 0.01 0 0.045 0
0 0.05 0.01 0 0.05 0
0 0.055 0.01 0 0.055 0
0 0.06 0.01 0 0.06 0
0 0.065 0.01 0 0.065 0
0 0.07 0.01 0 0.07 0
0 0.075 0.01 0 0.075 0
0 0.08 0.01 0 0.08 0
0 0.085 0.01 0 0.085 0
0 0.09 0.01 0 0.09 0
0 0.095 0.01 0 0.095 0
0 0.1 0.01 0 0.1 0
        </DataArray>
      </Points>
      <Polys>
        <DataArray type='Int32' Name='connectivity' format='ascii'>
0 1 2 3 3 2
4 5 5 4 6 7
7 6 8 9 9 8
10 11 11 10 12 13
13 12 14 15 15 14
16 17 17 16 18 19
19 18 20 21 21 20
22 23 23 22 24 25
25 24 26 27 27 26
28 29 29 28 30 31
31 30 32 33 33 32
34 35 35 34 36 37
37 36 38 39 39 38
40 41
        </DataArray>
        <DataArray type='Int32' Name='offsets' format='ascii'>
4 8 12 16 20 24
28 32 36 40 44 48
52 56 60 64 68 72
76 80
        </DataArray>
      </Polys>
      <CellData>
        <DataArray type='Float32' Name='p' format='ascii'>
0.0118936 0.0119015 0.0119066 0.0119092 0.0119108 0.0119118
0.0119126 0.0119131 0.0119134 0.0119136 0.0119136 0.0119134
0.0119131 0.0119126 0.0119118 0.0119108 0.0119092 0.0119066
0.0119015 0.0118936
        </DataArray>
        <DataArray type='Float32' Name='U' NumberOfComponents='3' format='ascii'>
0.00146067 0 0 0.0041573 0 0
0.00655431 0 0 0.00865168 0 0
0.0104494 0 0 0.0119476 0 0
0.0131461 0 0 0.0140449 0 0
0.0146442 0 0 0.0149438 0 0
0.0149438 0 0 0.0146442 0 0
0.0140449 0 0 0.0131461 0 0
0.0119476 0 0 0.0104494 0 0
0.00865168 0 0 0.00655431 0 0
0.0041573 0 0 0.00146067 0 0
        </DataArray>
      </CellData>
    </Piece>
  </PolyData>
</VTKFile>
