<?xml version='1.0'?>
<!-- patch='inlet' time='450' index='450' -->
<VTKFile type='PolyData' version='0.1' byte_order='LittleEndian' header_type='UInt64'>
  <PolyData>
    <FieldData>
      <DataArray type='Float32' Name='TimeValue' NumberOfTuples='1' format='ascii'>
450
      </DataArray>
    </FieldData>
    <Piece NumberOfPoints='54' NumberOfPolys='26'>
      <Points>
        <DataArray type='Float32' Name='Points' NumberOfComponents='3' format='ascii'>
0 0 0 0 0 0.018
0 0.005 0.018 0 0.005 0
0 0.01 0.018 0 0.01 0
0 0.015 0.018 0 0.015 0
0 0.02 0.018 0 0.02 0
0 0.025 0.018 0 0.025 0
0 0.03 0.018 0 0.03 0
0 0.035 0.018 0 0.035 0
0 0.04 0.018 0 0.04 0
0 0.045 0.018 0 0.045 0
0 0.05 0.018 0 0.05 0
0 0.055 0.018 0 0.055 0
0 0.06 0.018 0 0.06 0
0 0.065 0.018 0 0.065 0
0 0.07 0.018 0 0.07 0
0 0.075 0.018 0 0.075 0
0 0.08 0.018 0 0.08 0
0 0.085 0.018 0 0.085 0
0 0.09 0.018 0 0.09 0
0 0.095 0.018 0 0.095 0
0 0.1 0.018 0 0.1 0
0 0.105 0.018 0 0.105 0
0 0.11 0.018 0 0.11 0
0 0.115 0.018 0 0.115 0
0 0.12 0.018 0 0.12 0
0 0.125 0.018 0 0.125 0
0 0.13 0.018 0 0.13 0
        </DataArray>
      </Points>
      <Polys>
        <DataArray type='Int32' Name='connectivity' format='ascii'>
0 1 2 3 3 2
4 5 5 4 6 7
7 6 8 9 9 8
10 11 11 10 12 13
13 12 14 15 15 14
16 17 17 16 18 19
19 18 20 21 21 20
22 23 23 22 24 25
25 24 26 27 27 26
28 29 29 28 30 31
31 30 32 33 33 32
34 35 35 34 36 37
37 36 38 39 39 38
40 41 41 40 42 43
43 42 44 45 45 44
46 47 47 46 48 49
49 48 50 51 51 50
52 53
        </DataArray>
        <DataArray type='Int32' Name='offsets' format='ascii'>
4 8 12 16 20 24
28 32 36 40 44 48
52 56 60 64 68 72
76 80 84 88 92 96
100 104
        </DataArray>
      </Polys>
      <CellData>
        <DataArray type='Float32' Name='p' format='ascii'>
0.0144194 0.0144325 0.0144413 0.014446 0.0144491 0.0144515
0.0144534 0.0144549 0.0144561 0.014457 0.0144577 0.0144581
0.0144583 0.0144583 0.0144581 0.0144577 0.014457 0.0144561
0.0144549 0.0144534 0.0144515 0.0144491 0.014446 0.0144413
0.0144325 0.0144194
        </DataArray>
        <DataArray type='Float32' Name='U' NumberOfComponents='3' format='ascii'>
0.00508869 0 0 0.0146674 0 0
0.0234479 0 0 0.0314302 0 0
0.0386142 0 0 0.045 0 0
0.0505876 0 0 0.0553769 0 0
0.0593681 0 0 0.062561 0 0
0.0649557 0 0 0.0665521 0 0
0.0673503 0 0 0.0673503 0 0
0.0665521 0 0 0.0649557 0 0
0.062561 0 0 0.0593681 0 0
0.0553769 0 0 0.0505876 0 0
0.045 0 0 0.0386142 0 0
0.0314302 0 0 0.0234479 0 0
0.0146674 0 0 0.00508869 0 0
        </DataArray>
      </CellData>
    </Piece>
  </PolyData>
</VTKFile>
