<?xml version='1.0'?>
<!-- patch='outlet' time='450' index='450' -->
<VTKFile type='PolyData' version='0.1' byte_order='LittleEndian' header_type='UInt64'>
  <PolyData>
    <FieldData>
      <DataArray type='Float32' Name='TimeValue' NumberOfTuples='1' format='ascii'>
450
      </DataArray>
    </FieldData>
    <Piece NumberOfPoints='54' NumberOfPolys='26'>
      <Points>
        <DataArray type='Float32' Name='Points' NumberOfComponents='3' format='ascii'>
0.7 0 0 0.7 0.005 0
0.7 0.005 0.018 0.7 0 0.018
0.7 0.01 0 0.7 0.01 0.018
0.7 0.015 0 0.7 0.015 0.018
0.7 0.02 0 0.7 0.02 0.018
0.7 0.025 0 0.7 0.025 0.018
0.7 0.03 0 0.7 0.03 0.018
0.7 0.035 0 0.7 0.035 0.018
0.7 0.04 0 0.7 0.04 0.018
0.7 0.045 0 0.7 0.045 0.018
0.7 0.05 0 0.7 0.05 0.018
0.7 0.055 0 0.7 0.055 0.018
0.7 0.06 0 0.7 0.06 0.018
0.7 0.065 0 0.7 0.065 0.018
0.7 0.07 0 0.7 0.07 0.018
0.7 0.075 0 0.7 0.075 0.018
0.7 0.08 0 0.7 0.08 0.018
0.7 0.085 0 0.7 0.085 0.018
0.7 0.09 0 0.7 0.09 0.018
0.7 0.095 0 0.7 0.095 0.018
0.7 0.1 0 0.7 0.1 0.018
0.7 0.105 0 0.7 0.105 0.018
0.7 0.11 0 0.7 0.11 0.018
0.7 0.115 0 0.7 0.115 0.018
0.7 0.12 0 0.7 0.12 0.018
0.7 0.125 0 0.7 0.125 0.018
0.7 0.13 0 0.7 0.13 0.018
        </DataArray>
      </Points>
      <Polys>
        <DataArray type='Int32' Name='connectivity' format='ascii'>
0 1 2 3 1 4
5 2 4 6 7 5
6 8 9 7 8 10
11 9 10 12 13 11
12 14 15 13 14 16
17 15 16 18 19 17
18 20 21 19 20 22
23 21 22 24 25 23
24 26 27 25 26 28
29 27 28 30 31 29
30 32 33 31 32 34
35 33 34 36 37 35
36 38 39 37 38 40
41 39 40 42 43 41
42 44 45 43 44 46
47 45 46 48 49 47
48 50 51 49 50 52
53 51
        </DataArray>
        <DataArray type='Int32' Name='offsets' format='ascii'>
4 8 12 16 20 24
28 32 36 40 44 48
52 56 60 64 68 72
76 80 84 88 92 96
100 104
        </DataArray>
      </Polys>
      <CellData>
        <DataArray type='Float32' Name='p' format='ascii'>
0 0 0 0 0 0
0 0 0 0 0 0
0 0 0 0 0 0
0 0 0 0 0 0
0 0
        </DataArray>
        <DataArray type='Float32' Name='U' NumberOfComponents='3' format='ascii'>
0.00517699 -8.88352e-15 0 0.0147345 -4.43287e-14 0
0.0234956 -9.59161e-14 0 0.0314602 -1.59294e-13 0
0.0386283 -2.31182e-13 0 0.045 -3.08219e-13 0
0.0505752 -3.86539e-13 0 0.055354 -4.61656e-13 0
0.0593363 -5.28622e-13 0 0.0625221 -5.83603e-13 0
0.0649115 -6.22659e-13 0 0.0665044 -6.44149e-13 0
0.0673009 -6.46595e-13 0 0.0673009 -6.31071e-13 0
0.0665044 -5.98783e-13 0 0.0649115 -5.52692e-13 0
0.0625221 -4.95788e-13 0 0.0593363 -4.31445e-13 0
0.055354 -3.63023e-13 0 0.0505752 -2.93262e-13 0
0.045 -2.24995e-13 0 0.0386283 -1.60238e-13 0
0.0314602 -1.01404e-13 0 0.0234956 -5.08858e-14 0
0.0147345 -1.37486e-14 0 0.00517699 2.51212e-15 0
        </DataArray>
      </CellData>
    </Piece>
  </PolyData>
</VTKFile>
