<?xml version='1.0'?>
<!-- patch='outlet' time='1000' index='1000' -->
<VTKFile type='PolyData' version='0.1' byte_order='LittleEndian' header_type='UInt64'>
  <PolyData>
    <FieldData>
      <DataArray type='Float32' Name='TimeValue' NumberOfTuples='1' format='ascii'>
1000
      </DataArray>
    </FieldData>
    <Piece NumberOfPoints='50' NumberOfPolys='24'>
      <Points>
        <DataArray type='Float32' Name='Points' NumberOfComponents='3' format='ascii'>
0.6 0 0 0.6 0.00333333 0
0.6 0.00333333 0.012 0.6 0 0.012
0.6 0.00666667 0 0.6 0.00666667 0.012
0.6 0.01 0 0.6 0.01 0.012
0.6 0.0133333 0 0.6 0.0133333 0.012
0.6 0.0166667 0 0.6 0.0166667 0.012
0.6 0.02 0 0.6 0.02 0.012
0.6 0.0233333 0 0.6 0.0233333 0.012
0.6 0.0266667 0 0.6 0.0266667 0.012
0.6 0.03 0 0.6 0.03 0.012
0.6 0.0333333 0 0.6 0.0333333 0.012
0.6 0.0366667 0 0.6 0.0366667 0.012
0.6 0.04 0 0.6 0.04 0.012
0.6 0.0433333 0 0.6 0.0433333 0.012
0.6 0.0466667 0 0.6 0.0466667 0.012
0.6 0.05 0 0.6 0.05 0.012
0.6 0.0533333 0 0.6 0.0533333 0.012
0.6 0.0566667 0 0.6 0.0566667 0.012
0.6 0.06 0 0.6 0.06 0.012
0.6 0.0633333 0 0.6 0.0633333 0.012
0.6 0.0666667 0 0.6 0.0666667 0.012
0.6 0.07 0 0.6 0.07 0.012
0.6 0.0733333 0 0.6 0.0733333 0.012
0.6 0.0766667 0 0.6 0.0766667 0.012
0.6 0.08 0 0.6 0.08 0.012
        </DataArray>
      </Points>
      <Polys>
        <DataArray type='Int32' Name='connectivity' format='ascii'>
0 1 2 3 1 4
5 2 4 6 7 5
6 8 9 7 8 10
11 9 10 12 13 11
12 14 15 13 14 16
17 15 16 18 19 17
18 20 21 19 20 22
23 21 22 24 25 23
24 26 27 25 26 28
29 27 28 30 31 29
30 32 33 31 32 34
35 33 34 36 37 35
36 38 39 37 38 40
41 39 40 42 43 41
42 44 45 43 44 46
47 45 46 48 49 47
        </DataArray>
        <DataArray type='Int32' Name='offsets' format='ascii'>
4 8 12 16 20 24
28 32 36 40 44 48
52 56 60 64 68 72
76 80 84 88 92 96
        </DataArray>
      </Polys>
      <CellData>
        <DataArray type='Float32' Name='p' format='ascii'>
0 0 0 0 0 0
0 0 0 0 0 0
0 0 0 0 0 0
0 0 0 0 0 0
        </DataArray>
        <DataArray type='Float32' Name='U' NumberOfComponents='3' format='ascii'>
0.00186851 2.28233e-16 0 0.00529412 6.06964e-16 0
0.0084083 8.60278e-16 0 0.0112111 1.0496e-15 0
0.0137024 1.157e-15 0 0.0158824 1.17391e-15 0
0.0177509 1.05758e-15 0 0.019308 8.34648e-16 0
0.0205536 4.95218e-16 0 0.0214879 9.70023e-17 0
0.0221107 -3.33483e-16 0 0.0224221 -7.27399e-16 0
0.0224221 -1.03397e-15 0 0.0221107 -1.2075e-15 0
0.0214879 -1.20312e-15 0 0.0205536 -1.03817e-15 0
0.019308 -7.16459e-16 0 0.0177509 -2.96607e-16 0
0.0158824 1.71344e-16 0 0.0137024 5.92014e-16 0
0.0112111 8.87356e-16 0 0.0084083 9.8879e-16 0
0.00529412 8.03717e-16 0 0.00186851 3.02442e-16 0
        </DataArray>
      </CellData>
    </Piece>
  </PolyData>
</VTKFile>
